<?xml version="1.0" standalone="no"?>
<!DOCTYPE svg PUBLIC "-//W3C//DTD SVG 20010904//EN"
 "http://www.w3.org/TR/2001/REC-SVG-20010904/DTD/svg10.dtd">
<svg version="1.0" xmlns="http://www.w3.org/2000/svg"
 width="1280.000000pt" height="896.000000pt" viewBox="0 0 1280.000000 896.000000"
 preserveAspectRatio="xMidYMid meet">
<metadata>
Created by potrace 1.15, written by Peter Selinger 2001-2017
</metadata>
<g transform="translate(0.000000,896.000000) scale(0.100000,-0.100000)"
fill="#000000" stroke="none">
<path d="M6160 8951 c-47 -9 -184 -60 -360 -134 -58 -24 -161 -59 -230 -77
-106 -28 -161 -52 -358 -152 -128 -65 -244 -126 -258 -135 -29 -21 -295 -348
-335 -413 -16 -25 -35 -72 -44 -105 -26 -102 -83 -495 -120 -830 -43 -382 -42
-392 40 -693 30 -111 55 -219 55 -240 l0 -37 -92 -18 c-51 -10 -108 -25 -127
-33 l-34 -14 6 -253 c6 -260 25 -483 53 -621 22 -110 85 -287 156 -441 120
-261 151 -302 310 -416 55 -39 108 -85 118 -102 11 -17 26 -63 34 -102 9 -38
27 -126 42 -194 26 -128 40 -169 114 -350 30 -73 43 -120 44 -157 1 -49 -2
-56 -39 -94 -51 -53 -396 -333 -590 -480 -157 -118 -164 -123 -365 -240 -69
-40 -159 -94 -200 -120 -43 -27 -135 -70 -215 -99 -155 -57 -208 -78 -370
-145 -60 -25 -153 -55 -205 -67 -85 -19 -259 -67 -485 -134 -44 -13 -100 -29
-125 -35 -66 -16 -289 -85 -410 -126 -58 -20 -172 -57 -255 -83 -82 -26 -197
-68 -255 -94 -91 -40 -309 -123 -530 -202 -36 -13 -110 -37 -166 -54 -116 -35
-151 -58 -282 -185 -102 -98 -184 -211 -252 -346 -84 -167 -200 -433 -221
-508 -24 -87 -37 -113 -117 -250 -32 -53 -65 -114 -74 -135 l-18 -37 2857 0
2856 0 -6 63 c-3 34 -46 334 -96 667 -128 859 -121 792 -131 1255 -5 226 -16
480 -24 566 -21 216 -31 469 -19 469 16 0 65 -41 251 -209 289 -262 387 -326
612 -402 188 -63 240 -95 240 -147 0 -37 -43 -129 -316 -675 -140 -279 -254
-516 -254 -526 0 -11 12 -21 34 -28 l34 -11 60 102 c33 55 110 202 172 326 62
124 113 226 115 228 2 2 18 -1 36 -5 29 -8 34 -15 49 -68 9 -33 20 -79 23
-102 7 -40 5 -45 -47 -103 -101 -113 -144 -214 -207 -485 -22 -93 -55 -225
-75 -293 -51 -180 -93 -446 -94 -599 l0 -23 196 0 c130 0 203 4 217 12 12 6
72 55 132 108 235 206 499 390 560 390 13 0 12 -6 -6 -41 -27 -54 -93 -124
-194 -207 -183 -151 -305 -255 -305 -259 0 -3 28 -3 63 -1 62 4 63 5 167 92
109 91 302 226 324 226 18 0 53 -67 70 -134 17 -65 10 -92 -40 -153 l-27 -33
102 0 c93 0 102 2 97 18 -3 9 -17 60 -31 112 -110 395 -297 826 -485 1114 -49
77 -90 145 -90 152 0 25 69 222 97 278 l29 58 46 -69 c24 -37 90 -144 145
-238 99 -167 142 -230 215 -314 l36 -43 21 21 c37 37 27 64 -84 221 -217 308
-409 610 -596 935 -33 57 -56 77 -129 118 -20 11 -29 22 -24 27 5 5 75 25 156
44 81 20 181 48 221 64 101 39 332 169 446 250 122 86 295 253 434 417 60 71
139 160 176 198 60 61 69 67 106 67 22 0 45 -4 52 -8 17 -11 23 -93 33 -497
19 -784 -33 -1646 -131 -2139 -33 -168 -77 -340 -145 -563 -35 -117 -64 -215
-64 -218 0 -3 1112 -5 2470 -5 1359 0 2470 1 2470 3 0 2 -31 95 -68 208 -107
317 -261 707 -328 826 -54 98 -129 171 -230 227 -49 27 -150 88 -224 136 -199
127 -247 154 -402 221 -77 33 -220 97 -317 141 -756 345 -963 434 -1309 564
-141 52 -276 106 -301 119 -128 65 -371 267 -661 550 -382 373 -516 494 -674
607 -41 29 -77 58 -79 63 -3 6 6 42 18 80 42 125 74 247 110 415 19 91 35 166
35 166 0 1 30 21 68 45 160 102 173 126 272 499 13 47 56 155 96 240 111 236
141 384 131 650 -6 156 -21 265 -56 401 -24 89 -37 101 -181 178 l-102 54 6
181 c27 787 18 898 -87 1086 -44 79 -451 685 -500 745 -55 68 -150 149 -217
187 -30 17 -114 66 -186 109 -271 162 -338 185 -589 200 -88 5 -252 19 -365
31 -231 23 -433 31 -500 19z"/>
</g>
</svg>
